<svg width="129" height="20" viewBox="0 0 103 16" xmlns="http://www.w3.org/2000/svg">
	<title>RiotJS Style Guide</title>
	<path d="M0 3.996C0 1.79 1.792 0 4 0h30v16H4c-2.21 0-4-1.79-4-3.996V3.996z" fill="#F04"/><path d="M102.4 12.004c0 2.207-1.794 3.996-3.998 3.996H34V0h64.402c2.208 0 3.998 1.79 3.998 3.996v8.008z" fill="#E0E0E0"/><path d="M8.85 4.276H5.58v7.538h1.94V9.18h.894l1.254 2.634h2.186l-1.496-2.9c.486-.21 1.342-.883 1.342-2.13 0-1.464-.95-2.508-2.85-2.508zM7.52 7.81V5.734h1.038c.602 0 1.1.353 1.1 1.054 0 .685-.465 1.022-1.11 1.022H7.52zm7.52 4.004V4.276h-1.976v7.538h1.977zm3.402-4.192c0-1.237.558-1.883 1.403-1.883s1.402.64 1.402 1.88v.86c0 1.23-.557 1.86-1.402 1.86-.845 0-1.403-.63-1.403-1.87v-.86zm-2.02.856c0 2.12 1.236 3.468 3.423 3.468 2.187 0 3.424-1.347 3.424-3.468V7.65c0-2.132-1.24-3.507-3.42-3.507-2.19 0-3.43 1.364-3.43 3.507v.828zm11.568 3.336v-5.93H30v-1.61h-5.997v1.608h2.01v5.93h1.977z" fill="#FFF"/><path d="M39.463 7.284c0 1.16.88 1.455 1.963 1.673.81.156 1.472.257 1.472.876 0 .468-.362.842-1.238.842-.786 0-1.137-.307-1.21-.787h-1.1c0 1.05.9 1.68 2.254 1.68 1.45 0 2.393-.687 2.393-1.875 0-1.115-.88-1.46-1.974-1.65-.658-.118-1.478-.2-1.478-.865 0-.513.463-.82 1.12-.82.748 0 1.11.413 1.15.803h1.026c0-1.03-.86-1.68-2.14-1.68-1.17 0-2.23.54-2.23 1.81zM45.95 5.61h-.91v.966h.898V9.81c0 1.183.345 1.7 1.762 1.7.25 0 .664-.032.753-.055v-.93c-.095.01-.318.02-.474.02-.69 0-.92-.177-.92-.824V6.58h1.32v-.97h-1.32V4.14h-1.11v1.47zm8.833-.033H53.59l-1.484 4.78h-.05l-1.478-4.78h-1.244l2.125 5.94-.08.262c-.15.55-.42.87-1.13.87-.15 0-.36-.02-.45-.04v.92c.15.03.41.05.67.05 1.31 0 1.77-.82 2.12-1.79l.15-.41c.01-.04 2.04-5.83 2.04-5.83zm1.388 5.89h1.13V3.453h-1.13v8.014zm5.37.1c1.54 0 2.25-.976 2.33-1.65h-1.13c-.09.362-.54.668-1.21.668-.92 0-1.43-.635-1.43-1.49v-.283h3.85v-.697c0-1.617-1.03-2.638-2.48-2.638-1.42 0-2.48.976-2.48 2.638v.81c0 1.655.96 2.642 2.56 2.642zM60.1 8.014V7.93c0-.897.546-1.5 1.372-1.5.824 0 1.365.603 1.365 1.5v.084H60.1zm10.22 4.696c-.737 0-1.194-.3-1.278-.702h-1.13c.074.886.788 1.656 2.36 1.656 1.51 0 2.644-.658 2.644-2.31V5.578H71.83v.893h-.05c-.197-.49-.827-.97-1.7-.97-1.3 0-2.294.94-2.294 2.54v.8c0 1.6.998 2.53 2.297 2.53.82 0 1.423-.41 1.65-.92h.063v.88c0 .88-.49 1.4-1.478 1.4zm.083-6.224c.87 0 1.394.725 1.394 1.573v.79c0 .83-.496 1.54-1.383 1.54-.87 0-1.49-.67-1.49-1.7v-.51c0-1.04.57-1.71 1.48-1.71zm9.22-.91h-1.13v3.65c0 .74-.623 1.315-1.432 1.315-.66 0-1.22-.28-1.22-1.22V5.58h-1.13v4.04c0 1.378.83 1.94 2.01 1.94 1.03 0 1.58-.6 1.74-1.075h.06v.982h1.12v-5.89zm2.057 5.89h1.12v-5.89h-1.125v5.89zM81.47 3.8c0 .43.324.742.764.742.463 0 .78-.312.78-.742 0-.435-.317-.747-.78-.747-.446 0-.764.313-.764.748zm5.376 1.69c-1.383 0-2.264.982-2.264 2.515v1.032c0 1.562.893 2.51 2.242 2.51.993 0 1.606-.508 1.757-1.015h.06v.937h1.09V3.45H88.6v3h-.057c-.197-.508-.75-.965-1.7-.965zm.274 1.004c.864 0 1.478.62 1.478 1.528v.91c0 1.01-.575 1.622-1.45 1.622-.87 0-1.428-.602-1.428-1.7V8.19c0-1.083.54-1.696 1.4-1.696zm6.826 5.075c1.534 0 2.247-.98 2.33-1.65H95.15c-.094.36-.546.66-1.215.66-.92 0-1.434-.64-1.434-1.49v-.28h3.85v-.7c0-1.62-1.03-2.64-2.48-2.64-1.42 0-2.48.97-2.48 2.63v.81c0 1.65.97 2.64 2.56 2.64zM92.5 8.01v-.08c0-.897.546-1.5 1.37-1.5.827 0 1.368.603 1.368 1.5v.084h-2.74z"/></svg>