<svg xmlns="http://www.w3.org/2000/svg" width="128" height="20" viewBox="0 0 128 20">
  <title>RiotJS Style Guide</title>
  <path fill="#F04" d="M0 5c0-2.76 2.24-5 5-5h40v20H5c-2.76 0-5-2.23-5-5V5z"/><path fill="#E0E0E0" d="M128 15c0 2.77-2.24 5-5 5H45V0h78c2.76 0 5 2.24 5 5v10z"/><path fill="#FFF" d="M11.7 5.42H7.6v9.43h2.42v-3.3h1.12l1.57 3.3h2.8l-1.8-3.63c.6-.26 1.68-1.1 1.68-2.66 0-1.83-1.2-3.14-3.55-3.14zm-1.67 4.42v-2.6h1.3c.75 0 1.37.45 1.37 1.32 0 .86-.58 1.28-1.4 1.28h-1.28zm9.4 5v-9.4h-2.48v9.4h2.48zm4.25-5.23c0-1.5.7-2.3 1.75-2.3s1.75.8 1.75 2.4v1.1c0 1.58-.7 2.3-1.75 2.3-1.06 0-1.75-.8-1.75-2.3V9.6zm-2.53 1.1c0 2.7 1.55 4.4 4.28 4.4 2.73 0 4.28-1.63 4.28-4.3V9.7c0-2.66-1.5-4.38-4.2-4.38S21.2 7 21.2 9.67v1.04zm14.45 4.2V7.5h2.55v-2h-7.5v2h2.52v7.4h2.47z"/><path d="M51.4 9.16c0 1.45 1.1 1.82 2.46 2.1 1 .18 1.84.3 1.84 1.08 0 .6-.45 1.06-1.55 1.06-.98 0-1.42-.4-1.5-.98h-1.38c0 1.3 1.12 2.1 2.8 2.1 1.83 0 3-.86 3-2.35 0-1.4-1.1-1.82-2.46-2.06-.8-.1-1.8-.2-1.8-1 0-.6.6-1 1.4-1 1 0 1.4.56 1.5 1H57C57 7.8 55.9 7 54.3 7c-1.46 0-2.8.67-2.8 2.26zm8.12-2.1h-1.14v1.2h1.12v4.06c0 1.47.43 2.12 2.2 2.12.32 0 .83-.04.94-.07V13.2c-.1.02-.4.03-.6.03-.84 0-1.14-.22-1.14-1.03V8.27h1.66v-1.2H60.9V5.23h-1.38v1.83zm11.04-.04h-1.5L67.22 13h-.05L65.3 7.02h-1.56l2.66 7.43-.1.33c-.18.7-.52 1.1-1.4 1.1-.2 0-.45-.03-.57-.06v1.15c.2.03.52.07.84.07 1.64 0 2.2-1.02 2.64-2.23l.2-.5 2.6-7.2zm1.74 7.37h1.4V4.3h-1.4v10.1zm6.7.1c1.92 0 2.8-1.2 2.9-2.1h-1.4c-.1.4-.68.8-1.52.8-1.14 0-1.8-.8-1.8-1.9V11H82v-.86c0-2.02-1.3-3.3-3.1-3.3-1.78 0-3.1 1.22-3.1 3.3v1c0 2.08 1.2 3.3 3.2 3.3zM77.2 10v-.1c0-1.13.68-1.88 1.7-1.88 1.04 0 1.72.74 1.72 1.87v.1H77.2zm12.77 5.87c-.92 0-1.5-.38-1.6-.88h-1.4c.1 1.1.98 2 2.95 2 1.9 0 3.3-.8 3.3-2.9V7h-1.35v1.1h-.07c-.24-.6-1.03-1.2-2.13-1.2-1.62 0-2.86 1.17-2.86 3.17v1c0 2 1.3 3.15 2.9 3.15 1.1 0 1.8-.5 2.1-1.15h.1v1.1c0 1.1-.6 1.74-1.8 1.74zm.1-7.78c1.1 0 1.75.9 1.75 1.9v1c0 1.02-.62 1.92-1.73 1.92-1.1 0-1.9-.85-1.9-2.13v-.64c0-1.3.7-2.14 1.8-2.14zM101.6 7h-1.4v4.58c0 .9-.8 1.63-1.8 1.63-.83 0-1.53-.3-1.53-1.5V7.1h-1.4v5.05c0 1.7 1.02 2.43 2.5 2.43 1.28 0 1.95-.72 2.16-1.3h.08v1.22h1.4V7zm2.57 7.38h1.4V7h-1.4v7.37zm-.25-9.6c0 .54.4.93.95.93.57 0 .98-.4.98-.9s-.4-.9-.98-.9c-.56 0-.95.4-.95 1zm6.72 2.1c-1.73 0-2.83 1.24-2.83 3.16v1.3c0 1.94 1.2 3.13 2.8 3.13 1.3-.02 2-.65 2.2-1.3h.1v1.2h1.4v-10h-1.4V8.1h-.1c-.2-.63-.9-1.2-2.1-1.2zm.33 1.27c1.1 0 1.86.77 1.86 1.9v1.15c0 1.26-.72 2.02-1.82 2.02-1 0-1.7-.75-1.7-2.12v-.83c0-1.36.7-2.13 1.8-2.13zm8.54 6.34c2 0 2.9-1.2 3-2.1h-1.4c-.1.4-.7.8-1.5.8-1.13 0-1.8-.8-1.8-1.9V11h4.85v-.86c0-2.02-1.3-3.3-3.1-3.3s-3.1 1.22-3.1 3.3v1c0 2.08 1.2 3.3 3.2 3.3zm-1.8-4.5v-.1c0-1.2.7-1.9 1.8-1.9s1.7.7 1.7 1.82v.1h-3.4z"/>
</svg>
